# xmcd CD database file
#
# Track frame offsets:
#	182
#	17800
#	37687
#	53075
#	62507
#	77057
#	93095
#	108995
#	121755
#	135145
#	155357
#	171260
#	184530
#	198425
#	213562
#	228782
#
# Disc length: 3201 seconds
#
# Revision: 1
# Processed by: cddbd v1.5.2PL0 Copyright (c) Steve Scherf et al.
# Submitted via: CDex 1.51
#
DISCID=b90c7f10
DTITLE=Otis Spann - The Blues Of Otis Spann  .. Plus
DYEAR=1993
DGENRE=Blues
TTITLE0=Rock Me Mama
TTITLE1=I Came From Clarksdale
TTITLE2=Keep Your Hand Out Of My Pocket
TTITLE3=Spann's Boogie
TTITLE4=Sarah Street
TTITLE5=The Blues Don't Like Nobody
TTITLE6=Country Boy
TTITLE7=Pretty Girls Everywhere
TTITLE8=Meet Me In The Bottom
TTITLE9=Lost Sheep In The Fold
TTITLE10=I Got A Feeling
TTITLE11=Jangle Boogie
TTITLE12=T.99
TTITLE13=Natural Days
TTITLE14=You're Gonna Need My Help
TTITLE15=Stirs Me Up
EXTD=ARD See For Miles Records SEECD 389 YEAR: 1993
EXTT0=
EXTT1=
EXTT2=
EXTT3=
EXTT4=
EXTT5=
EXTT6=
EXTT7=
EXTT8=
EXTT9=
EXTT10=
EXTT11=
EXTT12=
EXTT13=
EXTT14=
EXTT15=
PLAYORDER=
